<?xml version="1.0" encoding="UTF-8" standalone="no"?>
<svg
   height="16px"
   viewBox="0 0 16 16"
   width="16px"
   version="1.1"
   id="svg1"
   sodipodi:docname="hotkeys.svg"
   inkscape:version="1.4.3 (0d15f75, 2025-12-25)"
   xmlns:inkscape="http://www.inkscape.org/namespaces/inkscape"
   xmlns:sodipodi="http://sodipodi.sourceforge.net/DTD/sodipodi-0.dtd"
   xmlns="http://www.w3.org/2000/svg"
   xmlns:svg="http://www.w3.org/2000/svg">
  <defs
     id="defs1" />
  <sodipodi:namedview
     id="namedview1"
     pagecolor="#ffffff"
     bordercolor="#000000"
     borderopacity="0.25"
     inkscape:showpageshadow="2"
     inkscape:pageopacity="0.0"
     inkscape:pagecheckerboard="0"
     inkscape:deskcolor="#d1d1d1"
     inkscape:zoom="55.375"
     inkscape:cx="7.9909707"
     inkscape:cy="8"
     inkscape:window-width="1920"
     inkscape:window-height="1130"
     inkscape:window-x="-6"
     inkscape:window-y="-6"
     inkscape:window-maximized="1"
     inkscape:current-layer="svg1" />
  <path
     d="m 1 2 c -0.554688 0 -1 0.445312 -1 1 v 10 c 0 0.554688 0.445312 1 1 1 h 14 c 0.554688 0 1 -0.445312 1 -1 v -10 c 0 -0.554688 -0.445312 -1 -1 -1 z m 1.25 2 h 1.5 c 0.140625 0 0.25 0.113281 0.25 0.25 v 1.5 c 0 0.136719 -0.109375 0.25 -0.25 0.25 h -1.5 c -0.136719 0 -0.25 -0.113281 -0.25 -0.25 v -1.5 c 0 -0.136719 0.113281 -0.25 0.25 -0.25 z m 3 0 h 1.5 c 0.140625 0 0.25 0.113281 0.25 0.25 v 1.5 c 0 0.136719 -0.109375 0.25 -0.25 0.25 h -1.5 c -0.136719 0 -0.25 -0.113281 -0.25 -0.25 v -1.5 c 0 -0.136719 0.113281 -0.25 0.25 -0.25 z m 3 0 h 1.5 c 0.140625 0 0.25 0.113281 0.25 0.25 v 1.5 c 0 0.136719 -0.109375 0.25 -0.25 0.25 h -1.5 c -0.136719 0 -0.25 -0.113281 -0.25 -0.25 v -1.5 c 0 -0.136719 0.113281 -0.25 0.25 -0.25 z m 3 0 h 1.5 c 0.140625 0 0.25 0.113281 0.25 0.25 v 1.5 c 0 0.136719 -0.109375 0.25 -0.25 0.25 h -1.5 c -0.136719 0 -0.25 -0.113281 -0.25 -0.25 v -1.5 c 0 -0.136719 0.113281 -0.25 0.25 -0.25 z m -8 3 h 1.5 c 0.140625 0 0.25 0.113281 0.25 0.25 v 1.5 c 0 0.136719 -0.109375 0.25 -0.25 0.25 h -1.5 c -0.136719 0 -0.25 -0.113281 -0.25 -0.25 v -1.5 c 0 -0.136719 0.113281 -0.25 0.25 -0.25 z m 3 0 h 1.5 c 0.140625 0 0.25 0.113281 0.25 0.25 v 1.5 c 0 0.136719 -0.109375 0.25 -0.25 0.25 h -1.5 c -0.136719 0 -0.25 -0.113281 -0.25 -0.25 v -1.5 c 0 -0.136719 0.113281 -0.25 0.25 -0.25 z m 3 0 h 1.5 c 0.140625 0 0.25 0.113281 0.25 0.25 v 1.5 c 0 0.136719 -0.109375 0.25 -0.25 0.25 h -1.5 c -0.136719 0 -0.25 -0.113281 -0.25 -0.25 v -1.5 c 0 -0.136719 0.113281 -0.25 0.25 -0.25 z m 3 0 h 1.5 c 0.140625 0 0.25 0.113281 0.25 0.25 v 1.5 c 0 0.136719 -0.109375 0.25 -0.25 0.25 h -1.5 c -0.136719 0 -0.25 -0.113281 -0.25 -0.25 v -1.5 c 0 -0.136719 0.113281 -0.25 0.25 -0.25 z m -10 3 h 1.5 c 0.140625 0 0.25 0.113281 0.25 0.25 v 1.5 c 0 0.136719 -0.109375 0.25 -0.25 0.25 h -1.5 c -0.136719 0 -0.25 -0.113281 -0.25 -0.25 v -1.5 c 0 -0.136719 0.113281 -0.25 0.25 -0.25 z m 3 0 h 5.5 c 0.140625 0 0.25 0.113281 0.25 0.25 v 1.5 c 0 0.136719 -0.109375 0.25 -0.25 0.25 h -5.5 c -0.136719 0 -0.25 -0.113281 -0.25 -0.25 v -1.5 c 0 -0.136719 0.113281 -0.25 0.25 -0.25 z m 7 0 h 2.5 c 0.140625 0 0.25 0.113281 0.25 0.25 v 1.5 c 0 0.136719 -0.109375 0.25 -0.25 0.25 h -2.5 c -0.136719 0 -0.25 -0.113281 -0.25 -0.25 v -1.5 c 0 -0.136719 0.113281 -0.25 0.25 -0.25 z m 0 0"
     fill="#fefefe"
     id="path1"
     style="stroke:none;fill:#ff8300;fill-opacity:1" />
</svg>
