<?xml version="1.0" encoding="UTF-8" standalone="no"?>
<svg
   height="16px"
   viewBox="0 0 16 16"
   width="16px"
   version="1.1"
   id="svg2"
   sodipodi:docname="video.svg"
   inkscape:version="1.4.3 (0d15f75, 2025-12-25)"
   xmlns:inkscape="http://www.inkscape.org/namespaces/inkscape"
   xmlns:sodipodi="http://sodipodi.sourceforge.net/DTD/sodipodi-0.dtd"
   xmlns="http://www.w3.org/2000/svg"
   xmlns:svg="http://www.w3.org/2000/svg">
  <defs
     id="defs2" />
  <sodipodi:namedview
     id="namedview2"
     pagecolor="#ffffff"
     bordercolor="#000000"
     borderopacity="0.25"
     inkscape:showpageshadow="2"
     inkscape:pageopacity="0.0"
     inkscape:pagecheckerboard="0"
     inkscape:deskcolor="#d1d1d1"
     inkscape:zoom="55.375"
     inkscape:cx="7.9909707"
     inkscape:cy="8"
     inkscape:window-width="1920"
     inkscape:window-height="1130"
     inkscape:window-x="-6"
     inkscape:window-y="-6"
     inkscape:window-maximized="1"
     inkscape:current-layer="svg2" />
  <g
     fill="#fefefe"
     id="g2"
     style="stroke:none;fill:#ff8300;fill-opacity:1">
    <path
       d="m 2.984375 1.003906 c -1.664063 0 -3 1.339844 -3 3 v 7 c 0 1.664063 1.335937 3 3 3 h 10 c 1.660156 0 3 -1.335937 3 -3 v -7 c 0 -1.660156 -1.339844 -3 -3 -3 z m 0 2 h 10 c 0.550781 0 1 0.445313 1 1 v 7 c 0 0.554688 -0.449219 1 -1 1 h -10 c -0.554687 0 -1 -0.445312 -1 -1 v -7 c 0 -0.554687 0.445313 -1 1 -1 z m 0 0"
       id="path1"
       style="stroke:none;fill:#ff8300;fill-opacity:1" />
    <path
       d="m 7.984375 16.003906 c 3 0 4 -1 4 -1 h -8 s 1 1 4 1 z m 0 0"
       id="path2"
       style="stroke:none;fill:#ff8300;fill-opacity:1" />
  </g>
</svg>
