<?xml version="1.0" encoding="UTF-8" standalone="no"?>
<svg
   height="16px"
   viewBox="0 0 16 16"
   width="16px"
   version="1.1"
   id="svg1"
   sodipodi:docname="media_restart.svg"
   inkscape:version="1.4.3 (0d15f75, 2025-12-25)"
   xmlns:inkscape="http://www.inkscape.org/namespaces/inkscape"
   xmlns:sodipodi="http://sodipodi.sourceforge.net/DTD/sodipodi-0.dtd"
   xmlns="http://www.w3.org/2000/svg"
   xmlns:svg="http://www.w3.org/2000/svg">
  <defs
     id="defs1" />
  <sodipodi:namedview
     id="namedview1"
     pagecolor="#ffffff"
     bordercolor="#000000"
     borderopacity="0.25"
     inkscape:showpageshadow="2"
     inkscape:pageopacity="0.0"
     inkscape:pagecheckerboard="0"
     inkscape:deskcolor="#d1d1d1"
     inkscape:zoom="55.375"
     inkscape:cx="7.9909707"
     inkscape:cy="8"
     inkscape:window-width="1920"
     inkscape:window-height="1130"
     inkscape:window-x="-6"
     inkscape:window-y="-6"
     inkscape:window-maximized="1"
     inkscape:current-layer="svg1" />
  <path
     d="m 6.71875 2 c -0.191406 0.007812 -0.371094 0.035156 -0.5625 0.0625 c -1.523438 0.21875 -2.976562 1.023438 -3.96875 2.34375 c -1.980469 2.640625 -1.421875 6.425781 1.21875 8.40625 s 6.425781 1.421875 8.40625 -1.21875 c 0.121094 -0.171875 0.1875 -0.382812 0.1875 -0.59375 v -1 h -1 c -0.3125 0 -0.625 0.152344 -0.8125 0.40625 c -1.332031 1.777344 -3.816406 2.113281 -5.59375 0.78125 s -2.113281 -3.816406 -0.78125 -5.59375 s 3.816406 -2.113281 5.59375 -0.78125 c 0.429688 0.320312 0.769531 0.734375 1.03125 1.1875 h -1.4375 c -0.550781 0 -1 0.449219 -1 1 v 1 h 6 v -6 h -1 c -0.550781 0 -1 0.449219 -1 1 v 1.6875 c -0.382812 -0.578125 -0.847656 -1.082031 -1.40625 -1.5 c -1.15625 -0.867188 -2.53125 -1.253906 -3.875 -1.1875 z m 0 0"
     fill="#fefefe"
     id="path1"
     style="fill:#ff0000" />
</svg>
