<?xml version="1.0" encoding="UTF-8" standalone="no"?>
<svg
   version="1.1"
   x="0"
   y="0"
   width="128"
   height="128"
   viewBox="0 0 128 128"
   id="svg2"
   sodipodi:docname="checkbox_unchecked.svg"
   inkscape:version="1.4.3 (0d15f75, 2025-12-25)"
   xmlns:inkscape="http://www.inkscape.org/namespaces/inkscape"
   xmlns:sodipodi="http://sodipodi.sourceforge.net/DTD/sodipodi-0.dtd"
   xmlns="http://www.w3.org/2000/svg"
   xmlns:svg="http://www.w3.org/2000/svg">
  <defs
     id="defs2" />
  <sodipodi:namedview
     id="namedview2"
     pagecolor="#ffffff"
     bordercolor="#000000"
     borderopacity="0.25"
     inkscape:showpageshadow="2"
     inkscape:pageopacity="0.0"
     inkscape:pagecheckerboard="0"
     inkscape:deskcolor="#d1d1d1"
     inkscape:zoom="6.921875"
     inkscape:cx="63.927765"
     inkscape:cy="64"
     inkscape:window-width="1920"
     inkscape:window-height="1130"
     inkscape:window-x="-6"
     inkscape:window-y="-6"
     inkscape:window-maximized="1"
     inkscape:current-layer="svg2" />
  <g
     id="g2"
     style="stroke:#ff0000">
    <path
       fill="none"
       stroke="#B0AFB3"
       stroke-width="8"
       stroke-miterlimit="10"
       d="M115.579,104.737   c0,6.221-5.012,11.263-11.192,11.263H22.771c-6.182,0-11.192-5.042-11.192-11.263V23.263c0-6.221,5.01-11.263,11.192-11.263h81.615   c6.181,0,11.192,5.042,11.192,11.263V104.737z"
       id="path1"
       style="stroke:#ff0000" />
    <path
       display="none"
       fill="#B0AFB3"
       d="M90,77.91C90,84.587,84.587,90,77.91,90H50.09C43.413,90,38,84.587,38,77.91V50.09   C38,43.413,43.413,38,50.09,38h27.82C84.587,38,90,43.413,90,50.09V77.91z"
       id="path2"
       style="stroke:#ff0000" />
  </g>
</svg>
