<?xml version="1.0" encoding="UTF-8" standalone="no"?>
<svg
   version="1.1"
   x="0px"
   y="0px"
   width="128px"
   height="128px"
   viewBox="0 0 128 128"
   id="svg2"
   sodipodi:docname="checkbox_checked.svg"
   inkscape:version="1.4.3 (0d15f75, 2025-12-25)"
   xmlns:inkscape="http://www.inkscape.org/namespaces/inkscape"
   xmlns:sodipodi="http://sodipodi.sourceforge.net/DTD/sodipodi-0.dtd"
   xmlns="http://www.w3.org/2000/svg"
   xmlns:svg="http://www.w3.org/2000/svg">
  <defs
     id="defs2" />
  <sodipodi:namedview
     id="namedview2"
     pagecolor="#ffffff"
     bordercolor="#000000"
     borderopacity="0.25"
     inkscape:showpageshadow="2"
     inkscape:pageopacity="0.0"
     inkscape:pagecheckerboard="0"
     inkscape:deskcolor="#d1d1d1"
     inkscape:zoom="6.921875"
     inkscape:cx="63.927765"
     inkscape:cy="64"
     inkscape:window-width="1920"
     inkscape:window-height="1130"
     inkscape:window-x="-6"
     inkscape:window-y="-6"
     inkscape:window-maximized="1"
     inkscape:current-layer="svg2" />
  <g
     id="g1">
    <path
       fill="none"
       stroke="#B0AFB3"
       stroke-width="8"
       stroke-miterlimit="10"
       d="M115.579,104.736   c0,6.222-5.013,11.264-11.192,11.264H22.771c-6.182,0-11.192-5.042-11.192-11.264V23.263c0-6.221,5.01-11.263,11.192-11.263h81.616   c6.18,0,11.191,5.042,11.191,11.263L115.579,104.736L115.579,104.736z"
       id="path1" />
  </g>
  <g
     id="g2">
    <line
       fill="none"
       stroke="#B0AFB3"
       stroke-width="12"
       stroke-miterlimit="10"
       x1="29.213"
       y1="66.025"
       x2="54.362"
       y2="91.168"
       id="line1" />
    <line
       fill="none"
       stroke="#B0AFB3"
       stroke-width="12"
       stroke-miterlimit="10"
       x1="98.213"
       y1="38.12"
       x2="45.165"
       y2="91.168"
       id="line2" />
  </g>
  <path
     style="fill:#ff0000;stroke:#ff0000;stroke-width:0.14447"
     d="m 20.803612,119.80842 c -3.195087,-0.43976 -6.355654,-2.01582 -8.656521,-4.31669 -2.5744028,-2.5744 -4.0935114,-5.84353 -4.4178582,-9.50725 -0.1931311,-2.18155 -0.1931311,-81.787409 0,-83.96896 C 8.311171,15.442123 12.85177,10.123104 19.286682,8.4767133 l 1.227991,-0.3141851 h 43.051918 43.051919 l 1.27234,0.3243024 c 6.23349,1.5888334 10.67896,6.6255014 11.5086,13.0391284 0.19056,1.47314 0.19056,83.474941 0,84.948081 -0.81349,6.28874 -5.14486,11.29508 -11.22447,12.97359 l -1.412,0.38984 L 64,119.85277 c -23.519639,0.008 -42.958014,-0.0115 -43.196388,-0.0444 z m 85.037938,-7.90787 c 1.99435,-0.42273 4.00599,-1.9054 4.92702,-3.63146 0.89553,-1.67824 0.83414,1.57962 0.83414,-44.26909 0,-37.120162 -0.025,-41.931287 -0.22146,-42.685694 -0.66873,-2.567412 -2.88285,-4.651703 -5.5397,-5.21486 -1.45083,-0.307525 -83.119306,-0.30321 -84.571274,0.0045 -2.673572,0.566542 -4.813962,2.650558 -5.524674,5.379166 -0.188119,0.72224 -0.215128,6.060103 -0.215128,42.51692 0,45.853568 -0.06975,42.352348 0.881222,44.236208 0.874284,1.73195 2.837468,3.22897 4.791035,3.6534 1.370089,0.29766 83.236209,0.30825 84.638819,0.0109 z"
     id="path2" />
  <path
     style="fill:#ff0000;stroke:#ff0000;stroke-width:0.14447"
     d="M 45.215818,91.157126 C 41.881863,87.821683 41.073854,86.940593 41.217387,86.79706 41.36092,86.653527 39.747044,84.966758 33.231135,78.450098 L 25.065,70.283019 l 4.190075,-4.188207 4.190075,-4.188206 8.162452,8.161493 8.162452,8.161493 22.103308,-22.102954 22.103308,-22.102953 4.190373,4.188505 4.190377,4.188506 -22.107743,22.108092 C 62.59979,82.158955 58.178239,86.653183 58.321969,86.796913 c 0.257576,0.257576 -8.082924,8.618136 -8.364408,8.384524 -0.134363,-0.111512 -0.241256,-0.111512 -0.375618,0 -0.144749,0.120131 -1.145823,-0.802573 -4.366125,-4.024311 z"
     id="path3" />
</svg>
