<?xml version="1.0" encoding="UTF-8" standalone="no"?>
<svg
   version="1.1"
   x="0"
   y="0"
   width="128"
   height="128"
   viewBox="0 0 128 128"
   id="svg2"
   sodipodi:docname="checkbox_checked_disabled.svg"
   inkscape:version="1.4.3 (0d15f75, 2025-12-25)"
   xmlns:inkscape="http://www.inkscape.org/namespaces/inkscape"
   xmlns:sodipodi="http://sodipodi.sourceforge.net/DTD/sodipodi-0.dtd"
   xmlns="http://www.w3.org/2000/svg"
   xmlns:svg="http://www.w3.org/2000/svg">
  <defs
     id="defs2" />
  <sodipodi:namedview
     id="namedview2"
     pagecolor="#ffffff"
     bordercolor="#000000"
     borderopacity="0.25"
     inkscape:showpageshadow="2"
     inkscape:pageopacity="0.0"
     inkscape:pagecheckerboard="0"
     inkscape:deskcolor="#d1d1d1"
     inkscape:zoom="6.921875"
     inkscape:cx="63.927765"
     inkscape:cy="64"
     inkscape:window-width="1920"
     inkscape:window-height="1130"
     inkscape:window-x="-6"
     inkscape:window-y="-6"
     inkscape:window-maximized="1"
     inkscape:current-layer="svg2" />
  <g
     id="g1">
    <path
       id="Unchecked_1_"
       fill="none"
       stroke="#4A4C53"
       stroke-width="8"
       stroke-miterlimit="10"
       d="M115.579,104.737   c0,6.221-5.012,11.263-11.192,11.263H22.771c-6.182,0-11.192-5.042-11.192-11.263V23.263c0-6.221,5.01-11.263,11.192-11.263h81.615   c6.181,0,11.192,5.042,11.192,11.263V104.737z" />
  </g>
  <g
     id="g2">
    <line
       fill="none"
       stroke="#4A4C53"
       stroke-width="12"
       stroke-miterlimit="10"
       x1="29.213"
       y1="66.025"
       x2="54.362"
       y2="91.168"
       id="line1" />
    <line
       fill="none"
       stroke="#4A4C53"
       stroke-width="12"
       stroke-miterlimit="10"
       x1="98.213"
       y1="38.12"
       x2="45.165"
       y2="91.168"
       id="line2" />
  </g>
  <path
     style="fill:#5d2400;fill-opacity:1;stroke:#5d2400;stroke-width:0.14447;fill-rule:nonzero;stroke-opacity:1"
     d="m 20.201771,119.69663 c -3.095299,-0.56414 -5.878382,-2.03298 -8.11958,-4.28529 -2.536449,-2.54903 -4.0305122,-5.78461 -4.3529582,-9.42686 -0.1931311,-2.18155 -0.1931311,-81.787409 0,-83.96896 0.322446,-3.642251 1.8165092,-6.877827 4.3529582,-9.426859 2.355327,-2.367012 5.362621,-3.8908059 8.580369,-4.3476682 0.842666,-0.1196435 12.566559,-0.1521705 43.626379,-0.121038 l 42.474041,0.042573 1.37246,0.383247 c 5.8135,1.6233662 9.95925,6.1045712 11.13976,12.0411322 0.29998,1.508545 0.30069,85.312243 7.3e-4,86.826183 -1.18541,5.98303 -5.42525,10.50324 -11.35719,12.10822 l -1.15576,0.3127 L 64,119.85966 c -34.65063,0.0208 -42.959372,-0.0102 -43.798229,-0.16303 z m 85.639779,-7.79608 c 1.99435,-0.42273 4.00599,-1.9054 4.92702,-3.63146 0.89553,-1.67824 0.83414,1.57962 0.83414,-44.26909 0,-45.845644 0.0613,-42.5895 -0.83352,-44.269094 -0.54998,-1.03231 -2.09525,-2.531299 -3.1143,-3.021038 -1.79718,-0.863687 0.93984,-0.813203 -44.088299,-0.813203 -45.310943,0 -42.310361,-0.05915 -44.153065,0.870348 -1.129196,0.569588 -2.505945,1.937868 -3.047778,3.029028 C 15.468223,21.603507 15.530474,18.30909 15.530474,64 c 0,36.9706 0.02505,41.78848 0.221279,42.55204 0.682556,2.656 2.842298,4.77081 5.450978,5.33757 1.370089,0.29766 83.236209,0.30825 84.638819,0.0109 z"
     id="path2" />
  <path
     style="fill:#5d2400;fill-opacity:1;fill-rule:nonzero;stroke:#5d2400;stroke-width:0.14447;stroke-opacity:1"
     d="M 45.215818,91.157126 C 41.881863,87.821683 41.073854,86.940593 41.217387,86.79706 41.36092,86.653527 39.747044,84.966758 33.231135,78.450098 L 25.065,70.283019 l 4.190075,-4.188207 4.190075,-4.188206 8.162452,8.161493 8.162452,8.161493 22.103308,-22.102954 22.103308,-22.102953 4.190373,4.188505 4.190377,4.188506 -22.121163,22.121512 C 65.522512,79.236187 58.174667,86.680535 58.29299,86.753664 c 0.239177,0.147819 -8.081105,8.485434 -8.360963,8.378382 -0.109394,-0.04185 -0.275172,-0.01278 -0.368396,0.06459 -0.120372,0.0999 -1.380504,-1.070876 -4.347813,-4.039508 z"
     id="path3" />
</svg>
