<?xml version="1.0" encoding="UTF-8" standalone="no"?>
<svg
   version="1.2"
   viewBox="0 0 16 16"
   width="16"
   height="16"
   id="svg1"
   sodipodi:docname="close.svg"
   inkscape:version="1.4.3 (0d15f75, 2025-12-25)"
   xmlns:inkscape="http://www.inkscape.org/namespaces/inkscape"
   xmlns:sodipodi="http://sodipodi.sourceforge.net/DTD/sodipodi-0.dtd"
   xmlns="http://www.w3.org/2000/svg"
   xmlns:svg="http://www.w3.org/2000/svg">
  <defs
     id="defs1" />
  <sodipodi:namedview
     id="namedview1"
     pagecolor="#ffffff"
     bordercolor="#000000"
     borderopacity="0.25"
     inkscape:showpageshadow="2"
     inkscape:pageopacity="0.0"
     inkscape:pagecheckerboard="0"
     inkscape:deskcolor="#d1d1d1"
     inkscape:zoom="55.375"
     inkscape:cx="7.9909707"
     inkscape:cy="8"
     inkscape:window-width="1920"
     inkscape:window-height="1130"
     inkscape:window-x="-6"
     inkscape:window-y="-6"
     inkscape:window-maximized="1"
     inkscape:current-layer="svg1" />
  <style
     id="style1">.a{fill:#fefefe}</style>
  <path
     class="a"
     d="m1 1h1.8c0.5 0 0.9 0.2 1.3 0.6l4 4.1 4.1-4.1c0.5-0.5 0.8-0.6 1.2-0.6h1.8v1.8c0 0.5 0 1-0.4 1.4l-4.1 4.2 4 4.1c0.4 0.3 0.5 0.8 0.5 1.3v1.8h-1.8c-0.4 0-0.9-0.1-1.2-0.5l-4.1-4.2-4 4.2c-0.4 0.4-0.8 0.5-1.3 0.5h-1.8v-1.8c0-0.5 0.2-1 0.5-1.3l4.1-4.1-4.1-4.2c-0.4-0.4-0.5-0.9-0.5-1.4z"
     id="path1"
     style="fill:#ff8300;fill-opacity:1" />
</svg>
