<?xml version="1.0" encoding="UTF-8" standalone="no"?>
<svg
   height="16px"
   viewBox="0 0 16 16"
   width="16px"
   version="1.1"
   id="svg3"
   sodipodi:docname="filter.svg"
   inkscape:version="1.4.3 (0d15f75, 2025-12-25)"
   xmlns:inkscape="http://www.inkscape.org/namespaces/inkscape"
   xmlns:sodipodi="http://sodipodi.sourceforge.net/DTD/sodipodi-0.dtd"
   xmlns="http://www.w3.org/2000/svg"
   xmlns:svg="http://www.w3.org/2000/svg">
  <defs
     id="defs3" />
  <sodipodi:namedview
     id="namedview3"
     pagecolor="#ffffff"
     bordercolor="#000000"
     borderopacity="0.25"
     inkscape:showpageshadow="2"
     inkscape:pageopacity="0.0"
     inkscape:pagecheckerboard="0"
     inkscape:deskcolor="#d1d1d1"
     inkscape:zoom="55.375"
     inkscape:cx="7.9909707"
     inkscape:cy="8"
     inkscape:window-width="1920"
     inkscape:window-height="1130"
     inkscape:window-x="-6"
     inkscape:window-y="-6"
     inkscape:window-maximized="1"
     inkscape:current-layer="svg3" />
  <g
     fill="#fefefe"
     id="g3"
     style="fill:#ff8300;fill-opacity:1">
    <path
       d="m 6 11 h 1 v 1 h -1 z m 1 1 h 1 v 1 h -1 z m -1 -3 h 1 v 1 h -1 z m 1 1 h 1 v 1 h -1 z m -1 -3 h 1 v 1 h -1 z m 1 1 h 1 v 1 h -1 z m -1 -3 h 1 v 1 h -1 z m 1 1 h 1 v 1 h -1 z m -1 -3 h 1 v 1 h -1 z m 1 1 h 1 v 1 h -1 z m -4 -1 h 3 v 10 h -3 z m 0 0"
       id="path1"
       style="fill:#ff8300;fill-opacity:1" />
    <path
       d="m 8 3 h 1 v 10 h -1 z m 2 9 h 1 v 1 h -1 z m 0 -2 h 1 v 1 h -1 z m 0 -2 h 1 v 1 h -1 z m 0 -2 h 1 v 1 h -1 z m 0 -2 h 1 v 1 h -1 z m -1 7 h 1 v 1 h -1 z m 0 -2 h 1 v 1 h -1 z m 0 -2 h 1 v 1 h -1 z m 0 -2 h 1 v 1 h -1 z m 0 -2 h 1 v 1 h -1 z m 0 0"
       fill-opacity="0.35"
       id="path2"
       style="fill:#ff8300;fill-opacity:1" />
    <path
       d="m 3.5 1 c -1.375 0 -2.5 1.125 -2.5 2.5 v 9 c 0 1.375 1.125 2.5 2.5 2.5 h 9 c 1.375 0 2.5 -1.125 2.5 -2.5 v -9 c 0 -1.375 -1.125 -2.5 -2.5 -2.5 z m 0 1 h 9 c 0.839844 0 1.5 0.660156 1.5 1.5 v 9 c 0 0.839844 -0.660156 1.5 -1.5 1.5 h -9 c -0.839844 0 -1.5 -0.660156 -1.5 -1.5 v -9 c 0 -0.839844 0.660156 -1.5 1.5 -1.5 z m 0 0"
       id="path3"
       style="fill:#ff8300;fill-opacity:1" />
  </g>
</svg>
