<?xml version="1.0" encoding="UTF-8" standalone="no"?>
<svg
   height="16px"
   viewBox="0 0 16 16"
   width="16px"
   version="1.1"
   id="svg1"
   sodipodi:docname="locked.svg"
   inkscape:version="1.4.3 (0d15f75, 2025-12-25)"
   xmlns:inkscape="http://www.inkscape.org/namespaces/inkscape"
   xmlns:sodipodi="http://sodipodi.sourceforge.net/DTD/sodipodi-0.dtd"
   xmlns="http://www.w3.org/2000/svg"
   xmlns:svg="http://www.w3.org/2000/svg">
  <defs
     id="defs1" />
  <sodipodi:namedview
     id="namedview1"
     pagecolor="#ffffff"
     bordercolor="#000000"
     borderopacity="0.25"
     inkscape:showpageshadow="2"
     inkscape:pageopacity="0.0"
     inkscape:pagecheckerboard="0"
     inkscape:deskcolor="#d1d1d1"
     inkscape:zoom="55.375"
     inkscape:cx="7.9909707"
     inkscape:cy="8"
     inkscape:window-width="1920"
     inkscape:window-height="1130"
     inkscape:window-x="-6"
     inkscape:window-y="-6"
     inkscape:window-maximized="1"
     inkscape:current-layer="svg1" />
  <path
     d="m 8 1 c -2.199219 0 -4 1.800781 -4 4 v 2 c -1.109375 0 -2 0.890625 -2 2 v 5 c 0 0.554688 0.445312 1 1 1 h 10 c 0.554688 0 1 -0.445312 1 -1 v -5 c 0 -1.109375 -0.890625 -2 -2 -2 v -2 c 0 -2.199219 -1.800781 -4 -4 -4 z m 0 2 c 1.125 0 2 0.875 2 2 v 2 h -4 v -2 c 0 -1.125 0.875 -2 2 -2 z m 0 0"
     fill="#fefefe"
     id="path1"
     style="fill:#ff0000" />
</svg>
