<?xml version="1.0" encoding="UTF-8" standalone="no"?>
<svg
   width="16px"
   height="16px"
   version="1.1"
   viewBox="0 0 16 16"
   id="svg2"
   sodipodi:docname="recording-pause-inactive.svg"
   inkscape:version="1.4.3 (0d15f75, 2025-12-25)"
   xmlns:inkscape="http://www.inkscape.org/namespaces/inkscape"
   xmlns:sodipodi="http://sodipodi.sourceforge.net/DTD/sodipodi-0.dtd"
   xmlns="http://www.w3.org/2000/svg"
   xmlns:svg="http://www.w3.org/2000/svg">
  <defs
     id="defs2" />
  <sodipodi:namedview
     id="namedview2"
     pagecolor="#ffffff"
     bordercolor="#000000"
     borderopacity="0.25"
     inkscape:showpageshadow="2"
     inkscape:pageopacity="0.0"
     inkscape:pagecheckerboard="0"
     inkscape:deskcolor="#d1d1d1"
     inkscape:zoom="55.375"
     inkscape:cx="7.9909707"
     inkscape:cy="8"
     inkscape:window-width="1920"
     inkscape:window-height="1130"
     inkscape:window-x="-6"
     inkscape:window-y="-6"
     inkscape:window-maximized="1"
     inkscape:current-layer="svg2" />
  <g
     fill="#fff"
     fill-opacity=".2"
     id="g2"
     style="fill:#ff0000">
    <path
       d="m3 1h3c0.55078 0 1 0.44922 1 1v12c0 0.55078-0.44922 1-1 1h-3c-0.55078 0-1-0.44922-1-1v-12c0-0.55078 0.44922-1 1-1z"
       id="path1"
       style="fill:#ff0000" />
    <path
       d="m10 1h3c0.55078 0 1 0.44922 1 1v12c0 0.55078-0.44922 1-1 1h-3c-0.55078 0-1-0.44922-1-1v-12c0-0.55078 0.44922-1 1-1z"
       id="path2"
       style="fill:#ff0000" />
  </g>
</svg>
