<?xml version="1.0" encoding="UTF-8" standalone="no"?>
<svg
   height="16px"
   viewBox="0 0 16 16"
   width="16px"
   version="1.1"
   id="svg1"
   sodipodi:docname="revert.svg"
   inkscape:version="1.4.3 (0d15f75, 2025-12-25)"
   xmlns:inkscape="http://www.inkscape.org/namespaces/inkscape"
   xmlns:sodipodi="http://sodipodi.sourceforge.net/DTD/sodipodi-0.dtd"
   xmlns="http://www.w3.org/2000/svg"
   xmlns:svg="http://www.w3.org/2000/svg">
  <defs
     id="defs1" />
  <sodipodi:namedview
     id="namedview1"
     pagecolor="#ffffff"
     bordercolor="#000000"
     borderopacity="0.25"
     inkscape:showpageshadow="2"
     inkscape:pageopacity="0.0"
     inkscape:pagecheckerboard="0"
     inkscape:deskcolor="#d1d1d1"
     inkscape:zoom="55.375"
     inkscape:cx="7.9909707"
     inkscape:cy="8"
     inkscape:window-width="1920"
     inkscape:window-height="1130"
     inkscape:window-x="-6"
     inkscape:window-y="-6"
     inkscape:window-maximized="1"
     inkscape:current-layer="svg1" />
  <path
     d="m 5 2 c -0.265625 0 -0.519531 0.105469 -0.707031 0.292969 l -4 4 c -0.3906252 0.390625 -0.3906252 1.023437 0 1.414062 l 4 4 c 0.390625 0.390625 1.023437 0.390625 1.414062 0 s 0.390625 -1.023437 0 -1.414062 l -2.292969 -2.292969 h 8.585938 c 1.117188 0 2 0.882812 2 2 s -0.882812 2 -2 2 c -0.550781 0 -1 0.449219 -1 1 s 0.449219 1 1 1 c 2.199219 0 4 -1.800781 4 -4 s -1.800781 -4 -4 -4 h -8.585938 l 2.292969 -2.292969 c 0.390625 -0.390625 0.390625 -1.023437 0 -1.414062 c -0.1875 -0.1875 -0.441406 -0.292969 -0.707031 -0.292969 z m 0 0"
     fill="#fefefe"
     id="path1"
     style="fill:#ff0000" />
</svg>
