<?xml version="1.0" encoding="UTF-8" standalone="no"?>
<svg
   width="16"
   height="16"
   version="1.1"
   viewBox="0 0 4.2333 4.2333"
   id="svg5"
   sodipodi:docname="streaming-inactive.svg"
   inkscape:version="1.4.3 (0d15f75, 2025-12-25)"
   xmlns:inkscape="http://www.inkscape.org/namespaces/inkscape"
   xmlns:sodipodi="http://sodipodi.sourceforge.net/DTD/sodipodi-0.dtd"
   xmlns="http://www.w3.org/2000/svg"
   xmlns:svg="http://www.w3.org/2000/svg"
   xmlns:rdf="http://www.w3.org/1999/02/22-rdf-syntax-ns#"
   xmlns:cc="http://creativecommons.org/ns#"
   xmlns:dc="http://purl.org/dc/elements/1.1/">
  <defs
     id="defs5" />
  <sodipodi:namedview
     id="namedview5"
     pagecolor="#ffffff"
     bordercolor="#000000"
     borderopacity="0.25"
     inkscape:showpageshadow="2"
     inkscape:pageopacity="0.0"
     inkscape:pagecheckerboard="0"
     inkscape:deskcolor="#d1d1d1"
     inkscape:zoom="55.375"
     inkscape:cx="7.9909707"
     inkscape:cy="8"
     inkscape:window-width="1920"
     inkscape:window-height="1130"
     inkscape:window-x="-6"
     inkscape:window-y="-6"
     inkscape:window-maximized="1"
     inkscape:current-layer="svg5" />
  <metadata
     id="metadata1">
    <rdf:RDF>
      <cc:Work
         rdf:about="">
        <dc:format>image/svg+xml</dc:format>
        <dc:type
           rdf:resource="http://purl.org/dc/dcmitype/StillImage" />
      </cc:Work>
    </rdf:RDF>
  </metadata>
  <g
     transform="matrix(1.8565 0 0 1.8565 .152 -547.29)"
     id="g5"
     style="fill:#ff0000">
    <circle
       cx="1.0583"
       cy="295.94"
       r=".37705"
       fill="#fff"
       fill-opacity=".4"
       style="paint-order:normal;fill:#ff0000"
       id="circle1" />
    <g
       fill="none"
       stroke="#fff"
       stroke-linecap="round"
       stroke-linejoin="round"
       id="g4"
       style="fill:#ff0000">
      <path
         d="m0.6324 296.42a0.62244 0.62244 0 0 1-0.22234-0.47682 0.62244 0.62244 0 0 1 0.22234-0.47682"
         stroke-opacity=".22"
         stroke-width=".18852"
         style="paint-order:normal;fill:#ff0000"
         id="path1" />
      <path
         d="m1.4833 296.42a0.62244 0.62244 0 0 0 0.22234-0.47682 0.62244 0.62244 0 0 0-0.22234-0.47682"
         stroke-opacity=".22"
         stroke-width=".18852"
         style="paint-order:normal;fill:#ff0000"
         id="path2" />
      <path
         d="m0.39544 296.7a0.98443 0.98443 0 0 1-0.35165-0.75411 0.98443 0.98443 0 0 1 0.35165-0.75413"
         stroke-opacity=".08"
         stroke-width=".25133"
         style="paint-order:normal;fill:#ff0000"
         id="path3" />
      <path
         d="m1.7211 296.7a0.98443 0.98443 0 0 0 0.35165-0.75411 0.98443 0.98443 0 0 0-0.35165-0.75413"
         stroke-opacity=".08"
         stroke-width=".25133"
         style="paint-order:normal;fill:#ff0000"
         id="path4" />
    </g>
  </g>
</svg>
