<?xml version="1.0" encoding="UTF-8" standalone="no"?>
<svg
   height="16px"
   viewBox="0 0 16 16"
   width="16px"
   version="1.1"
   id="svg1"
   sodipodi:docname="trash.svg"
   inkscape:version="1.4.3 (0d15f75, 2025-12-25)"
   xmlns:inkscape="http://www.inkscape.org/namespaces/inkscape"
   xmlns:sodipodi="http://sodipodi.sourceforge.net/DTD/sodipodi-0.dtd"
   xmlns="http://www.w3.org/2000/svg"
   xmlns:svg="http://www.w3.org/2000/svg">
  <defs
     id="defs1" />
  <sodipodi:namedview
     id="namedview1"
     pagecolor="#ffffff"
     bordercolor="#000000"
     borderopacity="0.25"
     inkscape:showpageshadow="2"
     inkscape:pageopacity="0.0"
     inkscape:pagecheckerboard="0"
     inkscape:deskcolor="#d1d1d1"
     inkscape:zoom="55.375"
     inkscape:cx="7.9909707"
     inkscape:cy="8"
     inkscape:window-width="1920"
     inkscape:window-height="1130"
     inkscape:window-x="-6"
     inkscape:window-y="-6"
     inkscape:window-maximized="1"
     inkscape:current-layer="svg1" />
  <path
     d="m 5.984375 0.00390625 l -1 0.99609375 l -3 0.003906 s -1 0 -1 1 l 0.015625 0.996094 h 15 l -0.015625 -0.996094 c 0 -1 -1 -1 -1 -1 l -3 -0.003906 l -1 -0.99609375 z m -3.984375 3.99609375 v 9 c 0 3 3 3 3 3 h 7 c 3 0 3 -3 3 -3 v -9 h -2 v 9 c 0 1 -1 1 -1 1 h -7 s -1 0 -1 -1 v -9 z m 4 1 v 7 h 1 v -7 z m 2 0 v 7 h 1 v -7 z m 2 0 v 7 h 1 v -7 z m 0 0"
     fill="#fefefe"
     id="path1"
     style="fill:#ff8300;fill-opacity:1" />
</svg>
