<?xml version="1.0" encoding="UTF-8" standalone="no"?>
<svg
   height="16px"
   viewBox="0 0 16 16"
   width="16px"
   version="1.1"
   id="svg1"
   sodipodi:docname="camera.svg"
   inkscape:version="1.4.3 (0d15f75, 2025-12-25)"
   xmlns:inkscape="http://www.inkscape.org/namespaces/inkscape"
   xmlns:sodipodi="http://sodipodi.sourceforge.net/DTD/sodipodi-0.dtd"
   xmlns="http://www.w3.org/2000/svg"
   xmlns:svg="http://www.w3.org/2000/svg">
  <defs
     id="defs1" />
  <sodipodi:namedview
     id="namedview1"
     pagecolor="#ffffff"
     bordercolor="#000000"
     borderopacity="0.25"
     inkscape:showpageshadow="2"
     inkscape:pageopacity="0.0"
     inkscape:pagecheckerboard="0"
     inkscape:deskcolor="#d1d1d1"
     inkscape:zoom="55.375"
     inkscape:cx="7.9909707"
     inkscape:cy="8"
     inkscape:window-width="1920"
     inkscape:window-height="1130"
     inkscape:window-x="-6"
     inkscape:window-y="-6"
     inkscape:window-maximized="1"
     inkscape:current-layer="svg1" />
  <path
     d="m 6 2 c -0.550781 0 -1 0.449219 -1 1 v 1 h -3 c -0.550781 0 -1 0.449219 -1 1 v 8 c 0 0.550781 0.449219 1 1 1 h 12 c 0.550781 0 1 -0.449219 1 -1 v -8 c 0 -0.550781 -0.449219 -1 -1 -1 h -3 v -1 c 0 -0.550781 -0.449219 -1 -1 -1 z m 2 3 c 2.210938 0 4 1.789062 4 4 s -1.789062 4 -4 4 c -2.207031 0 -4 -1.789062 -4 -4 s 1.792969 -4 4 -4 z m 0 2 c -1.105469 0 -2 0.894531 -2 2 s 0.894531 2 2 2 s 2 -0.894531 2 -2 s -0.894531 -2 -2 -2 z m 0 0"
     fill="#fefefe"
     id="path1"
     style="fill:#ff8300;fill-opacity:1" />
</svg>
