<?xml version="1.0" encoding="UTF-8" standalone="no"?>
<svg
   height="16px"
   viewBox="0 0 16 16"
   width="16px"
   version="1.1"
   id="svg2"
   sodipodi:docname="image.svg"
   inkscape:version="1.4.3 (0d15f75, 2025-12-25)"
   xmlns:inkscape="http://www.inkscape.org/namespaces/inkscape"
   xmlns:sodipodi="http://sodipodi.sourceforge.net/DTD/sodipodi-0.dtd"
   xmlns="http://www.w3.org/2000/svg"
   xmlns:svg="http://www.w3.org/2000/svg">
  <defs
     id="defs2" />
  <sodipodi:namedview
     id="namedview2"
     pagecolor="#ffffff"
     bordercolor="#000000"
     borderopacity="0.25"
     inkscape:showpageshadow="2"
     inkscape:pageopacity="0.0"
     inkscape:pagecheckerboard="0"
     inkscape:deskcolor="#d1d1d1"
     inkscape:zoom="55.375"
     inkscape:cx="7.9909707"
     inkscape:cy="8"
     inkscape:window-width="1920"
     inkscape:window-height="1130"
     inkscape:window-x="-6"
     inkscape:window-y="-6"
     inkscape:window-maximized="1"
     inkscape:current-layer="svg2" />
  <g
     fill="#fefefe"
     id="g2"
     style="fill:#ff8300;fill-opacity:1">
    <path
       d="m 5.972656 5.023438 c -0.550781 0 -1 0.449218 -1 1 c 0 0.554687 0.449219 1 1 1 c 0.550782 0 1 -0.445313 1 -1 c 0 -0.550782 -0.449218 -1 -1 -1 z m 3.5 3 l -2 2 l -1.5 -1 l -2 2 v 0.5 c 0 0.5 0.5 0.5 0.5 0.5 h 7 s 0.472656 -0.03125 0.5 -0.5 v -1 z m 0 0"
       id="path1"
       style="fill:#ff8300;fill-opacity:1" />
    <path
       d="m 3.972656 1.023438 c -1.644531 0 -3 1.355468 -3 3 v 8 c 0 1.648437 1.355469 3 3 3 h 8 c 1.644532 0 3 -1.351563 3 -3 v -8 c 0 -1.644532 -1.355468 -3 -3 -3 z m 0 2 h 8 c 0.570313 0 1 0.429687 1 1 v 8 c 0 0.574218 -0.429687 1 -1 1 h -8 c -0.570312 0 -1 -0.425782 -1 -1 v -8 c 0 -0.570313 0.429688 -1 1 -1 z m 0 0"
       id="path2"
       style="fill:#ff8300;fill-opacity:1" />
  </g>
</svg>
