<?xml version="1.0" encoding="UTF-8" standalone="no"?>
<svg
   height="16px"
   viewBox="0 0 16 16"
   width="16px"
   version="1.1"
   id="svg1"
   sodipodi:docname="microphone.svg"
   inkscape:version="1.4.3 (0d15f75, 2025-12-25)"
   xmlns:inkscape="http://www.inkscape.org/namespaces/inkscape"
   xmlns:sodipodi="http://sodipodi.sourceforge.net/DTD/sodipodi-0.dtd"
   xmlns="http://www.w3.org/2000/svg"
   xmlns:svg="http://www.w3.org/2000/svg">
  <defs
     id="defs1" />
  <sodipodi:namedview
     id="namedview1"
     pagecolor="#ffffff"
     bordercolor="#000000"
     borderopacity="0.25"
     inkscape:showpageshadow="2"
     inkscape:pageopacity="0.0"
     inkscape:pagecheckerboard="0"
     inkscape:deskcolor="#d1d1d1"
     inkscape:zoom="55.375"
     inkscape:cx="7.9909707"
     inkscape:cy="8"
     inkscape:window-width="1920"
     inkscape:window-height="1130"
     inkscape:window-x="-6"
     inkscape:window-y="-6"
     inkscape:window-maximized="1"
     inkscape:current-layer="svg1" />
  <path
     d="m 3.5 5 c -0.277344 0 -0.5 0.222656 -0.5 0.5 v 2.96875 c 0 1.96875 1.257812 3.625 3 4.25 v 1.28125 h -2 c -0.5625 0 -1 0.488281 -1 1 v 1 h 9 v -1 c 0 -0.585938 -0.476562 -1 -1 -1 h -2 v -1.28125 c 1.742188 -0.625 3 -2.28125 3 -4.25 v -2.96875 c 0 -0.277344 -0.222656 -0.5 -0.5 -0.5 s -0.5 0.222656 -0.5 0.5 c 0 0.070312 0.007812 0.128906 0.03125 0.1875 v 2.78125 c 0 1.964844 -1.578125 3.53125 -3.53125 3.53125 s -3.5 -1.566406 -3.5 -3.53125 v -2.96875 c 0 -0.277344 -0.222656 -0.5 -0.5 -0.5 z m 4 -4.011719 c 1.386719 0 2.5 1.113281 2.5 2.5 v 5.011719 c 0 1.386719 -1.113281 2.5 -2.5 2.5 s -2.5 -1.113281 -2.5 -2.5 v -5.011719 c 0 -1.386719 1.113281 -2.5 2.5 -2.5 z m 0 0"
     fill="#fefefe"
     id="path1"
     style="fill:#ff8300;fill-opacity:1" />
</svg>
