<?xml version="1.0" encoding="UTF-8" standalone="no"?>
<svg
   height="16px"
   viewBox="0 0 16 16"
   width="16px"
   version="1.1"
   id="svg1"
   sodipodi:docname="scene.svg"
   inkscape:version="1.4.3 (0d15f75, 2025-12-25)"
   xmlns:inkscape="http://www.inkscape.org/namespaces/inkscape"
   xmlns:sodipodi="http://sodipodi.sourceforge.net/DTD/sodipodi-0.dtd"
   xmlns="http://www.w3.org/2000/svg"
   xmlns:svg="http://www.w3.org/2000/svg">
  <defs
     id="defs1" />
  <sodipodi:namedview
     id="namedview1"
     pagecolor="#ffffff"
     bordercolor="#000000"
     borderopacity="0.25"
     inkscape:showpageshadow="2"
     inkscape:pageopacity="0.0"
     inkscape:pagecheckerboard="0"
     inkscape:deskcolor="#d1d1d1"
     inkscape:zoom="55.375"
     inkscape:cx="7.9909707"
     inkscape:cy="8"
     inkscape:window-width="1920"
     inkscape:window-height="1130"
     inkscape:window-x="-6"
     inkscape:window-y="-6"
     inkscape:window-maximized="1"
     inkscape:current-layer="svg1" />
  <path
     d="m 2.5 2.007812 s -0.5 0.222657 -0.5 0.5 v 0.988282 c 0 0.273437 0.5 0.5 0.5 0.5 h 1 s 0.5 -0.226563 0.5 -0.5 v -0.988282 c 0 -0.277343 -0.5 -0.5 -0.5 -0.5 z m 4 0 c -0.277344 0 -0.5 0.222657 -0.5 0.5 v 0.988282 c 0 0.273437 0.222656 0.5 0.5 0.5 h 8 c 0.277344 0 0.5 -0.226563 0.5 -0.5 v -0.988282 c 0 -0.277343 -0.222656 -0.5 -0.5 -0.5 z m -4 5 s -0.5 0.222657 -0.5 0.5 v 0.988282 c 0 0.273437 0.5 0.5 0.5 0.5 h 1 s 0.5 -0.226563 0.5 -0.5 v -0.988282 c 0 -0.277343 -0.5 -0.5 -0.5 -0.5 z m 4 0 s -0.5 0.222657 -0.5 0.5 v 0.988282 c 0 0.273437 0.222656 0.5 0.5 0.5 h 8 c 0.277344 0 0.5 -0.226563 0.5 -0.5 v -0.988282 c 0 -0.277343 -0.5 -0.5 -0.5 -0.5 z m -4 5 c -0.277344 0 -0.5 0.222657 -0.5 0.5 v 0.988282 c 0 0.273437 0.5 0.5 0.5 0.5 h 1 s 0.5 -0.226563 0.5 -0.5 v -0.988282 c 0 -0.277343 -0.222656 -0.5 -0.5 -0.5 z m 4 0 c -0.277344 0 -0.5 0.222657 -0.5 0.5 v 0.988282 c 0 0.273437 0.222656 0.5 0.5 0.5 h 8 c 0.277344 0 0.5 -0.226563 0.5 -0.5 v -0.988282 c 0 -0.277343 -0.222656 -0.5 -0.5 -0.5 z m 0 0"
     fill="#fefefe"
     id="path1"
     style="fill:#ff8300;fill-opacity:1" />
</svg>
