<?xml version="1.0" encoding="UTF-8" standalone="no"?>
<svg
   height="16px"
   viewBox="0 0 16 16"
   width="16px"
   version="1.1"
   id="svg1"
   sodipodi:docname="slideshow.svg"
   inkscape:version="1.4.3 (0d15f75, 2025-12-25)"
   xmlns:inkscape="http://www.inkscape.org/namespaces/inkscape"
   xmlns:sodipodi="http://sodipodi.sourceforge.net/DTD/sodipodi-0.dtd"
   xmlns="http://www.w3.org/2000/svg"
   xmlns:svg="http://www.w3.org/2000/svg">
  <defs
     id="defs1" />
  <sodipodi:namedview
     id="namedview1"
     pagecolor="#ffffff"
     bordercolor="#000000"
     borderopacity="0.25"
     inkscape:showpageshadow="2"
     inkscape:pageopacity="0.0"
     inkscape:pagecheckerboard="0"
     inkscape:deskcolor="#d1d1d1"
     inkscape:zoom="55.375"
     inkscape:cx="7.9909707"
     inkscape:cy="8"
     inkscape:window-width="1920"
     inkscape:window-height="1130"
     inkscape:window-x="-6"
     inkscape:window-y="-6"
     inkscape:window-maximized="1"
     inkscape:current-layer="svg1" />
  <path
     d="m 1.082031 1.988281 c -0.554687 0 -0.9999998 0.445313 -0.9999998 1 c 0.0039063 0.507813 0.3945308 0.933594 0.9062498 0.984375 l 0.011719 8.027344 h 6 l -0.011719 1.742188 l -1.804687 1.378906 c -0.222656 0.167968 -0.261719 0.480468 -0.09375 0.703125 c 0.167968 0.21875 0.480468 0.257812 0.703125 0.089843 l 1.6875 -1.292968 l 1.695312 1.324218 c 0.21875 0.167969 0.535157 0.128907 0.707031 -0.085937 c 0.167969 -0.21875 0.128907 -0.535156 -0.089843 -0.703125 l -1.804688 -1.414062 l 0.011719 -1.742188 h 6 l -0.011719 -8.054688 c 0.425781 -0.125 0.722657 -0.515624 0.722657 -0.957031 c 0 -0.554687 -0.449219 -1 -1 -1 z m 6.90625 2 c 1.101563 0 2 0.894531 2 2 h -2 z m -1 1 v 2 h 2 c 0 1.101563 -0.898437 2 -2 2 c -1.105469 0 -2 -0.898437 -2 -2 c 0 -1.105469 0.894531 -2 2 -2 z m 0 0"
     fill="#fefefe"
     id="path1"
     style="fill:#ff8300;fill-opacity:1" />
</svg>
